<svg width="720" height="595" viewBox="0 0 720 595" fill="none" xmlns="http://www.w3.org/2000/svg">
<g style="mix-blend-mode:soft-light" opacity="0.59">
<path d="M0.125256 782.091C0.125256 758.797 0.548007 735.502 0.125254 712.208C-0.297499 690.748 7.03021 677.542 21.8265 667.821C104.263 613.896 186.277 559.053 268.432 504.394C355.801 446.434 443.029 388.29 530.398 330.33C541.389 322.993 550.408 314.556 550.267 296.581C550.126 278.973 541.107 270.168 530.257 263.015C380.039 163.419 229.962 63.6387 79.7436 -36.1412C60.0151 -49.3474 40.4276 -62.9204 20.2764 -75.3929C6.32559 -84.0136 0.125227 -97.2197 0.266144 -117.029C0.547977 -166.185 -0.0156946 -215.342 0.266139 -264.314C0.547973 -292.928 11.6804 -301.365 31.5498 -288.159C113.705 -233.683 195.86 -178.841 278.014 -124.366C424.709 -26.9702 571.404 70.6085 718.1 168.004C765.871 199.736 813.642 231.467 861.413 263.015C872.263 270.168 881 278.789 881 296.948C881 315.106 871.981 323.176 860.99 330.33C585.073 513.749 309.439 696.984 33.6636 880.403C10.4122 895.811 0.407095 887.924 0.125259 853.808C-0.156577 829.963 0.125257 805.935 0.125256 782.091Z" fill="#FCFCFC"/>
</g>
</svg>
